<mxfile host="app.diagrams.net" modified="2023-10-17T14:02:46.515Z" agent="Mozilla/5.0 (Windows NT 10.0; Win64; x64; rv:109.0) Gecko/20100101 Firefox/118.0" etag="ynHIlUJA_CV2U0UsAOyF" version="22.0.4" type="device">
  <diagram name="Страница — 1" id="ZCq6h6P0zEXbTGPvVUHU">
    <mxGraphModel dx="1970" dy="1757" grid="1" gridSize="10" guides="1" tooltips="1" connect="1" arrows="1" fold="1" page="1" pageScale="1" pageWidth="827" pageHeight="1169" math="0" shadow="0">
      <root>
        <mxCell id="0" />
        <mxCell id="1" parent="0" />
        <mxCell id="e3u21Hywk7B6BTD9VeC_-1" value="ПОЛЬЗОВАТЕЛЬ" style="rounded=1;whiteSpace=wrap;html=1;" parent="1" vertex="1">
          <mxGeometry x="200" y="30" width="120" height="40" as="geometry" />
        </mxCell>
        <mxCell id="e3u21Hywk7B6BTD9VeC_-2" value="УЧЁТ" style="rhombus;whiteSpace=wrap;html=1;" parent="1" vertex="1">
          <mxGeometry x="200" y="140" width="120" height="80" as="geometry" />
        </mxCell>
        <mxCell id="hS-4HyBoHkUTcOerLhwg-1" style="rounded=0;orthogonalLoop=1;jettySize=auto;html=1;exitX=0.009;exitY=0.903;exitDx=0;exitDy=0;entryX=1;entryY=0.5;entryDx=0;entryDy=0;endArrow=none;endFill=0;exitPerimeter=0;" edge="1" parent="1" target="e3u21Hywk7B6BTD9VeC_-50">
          <mxGeometry relative="1" as="geometry">
            <mxPoint x="211.07999999999993" y="366.1199999999999" as="sourcePoint" />
          </mxGeometry>
        </mxCell>
        <mxCell id="e3u21Hywk7B6BTD9VeC_-3" value="ФИНАНСЫ" style="rounded=1;whiteSpace=wrap;html=1;" parent="1" vertex="1">
          <mxGeometry x="200" y="340" width="120" height="40" as="geometry" />
        </mxCell>
        <mxCell id="e3u21Hywk7B6BTD9VeC_-4" value="" style="endArrow=none;html=1;rounded=0;entryX=0.5;entryY=1;entryDx=0;entryDy=0;exitX=0.5;exitY=0;exitDx=0;exitDy=0;" parent="1" source="e3u21Hywk7B6BTD9VeC_-2" target="e3u21Hywk7B6BTD9VeC_-1" edge="1">
          <mxGeometry width="50" height="50" relative="1" as="geometry">
            <mxPoint x="180" y="150" as="sourcePoint" />
            <mxPoint x="230" y="100" as="targetPoint" />
          </mxGeometry>
        </mxCell>
        <mxCell id="e3u21Hywk7B6BTD9VeC_-5" value="" style="endArrow=none;html=1;rounded=0;exitX=0.5;exitY=1;exitDx=0;exitDy=0;entryX=0.5;entryY=0;entryDx=0;entryDy=0;" parent="1" source="e3u21Hywk7B6BTD9VeC_-2" target="e3u21Hywk7B6BTD9VeC_-3" edge="1">
          <mxGeometry width="50" height="50" relative="1" as="geometry">
            <mxPoint x="390" y="300" as="sourcePoint" />
            <mxPoint x="440" y="250" as="targetPoint" />
          </mxGeometry>
        </mxCell>
        <mxCell id="e3u21Hywk7B6BTD9VeC_-6" value="логин" style="ellipse;whiteSpace=wrap;html=1;" parent="1" vertex="1">
          <mxGeometry x="330" y="-20" width="120" height="40" as="geometry" />
        </mxCell>
        <mxCell id="e3u21Hywk7B6BTD9VeC_-7" value="пароль" style="ellipse;whiteSpace=wrap;html=1;" parent="1" vertex="1">
          <mxGeometry x="360" y="30" width="120" height="40" as="geometry" />
        </mxCell>
        <mxCell id="e3u21Hywk7B6BTD9VeC_-8" value="ФИО" style="ellipse;whiteSpace=wrap;html=1;" parent="1" vertex="1">
          <mxGeometry x="130" y="-70" width="120" height="40" as="geometry" />
        </mxCell>
        <mxCell id="e3u21Hywk7B6BTD9VeC_-9" value="эл. почта" style="ellipse;whiteSpace=wrap;html=1;" parent="1" vertex="1">
          <mxGeometry x="70" y="-20" width="120" height="40" as="geometry" />
        </mxCell>
        <mxCell id="e3u21Hywk7B6BTD9VeC_-10" value="pin-код" style="ellipse;whiteSpace=wrap;html=1;" parent="1" vertex="1">
          <mxGeometry x="40" y="30" width="120" height="40" as="geometry" />
        </mxCell>
        <mxCell id="e3u21Hywk7B6BTD9VeC_-11" value="" style="endArrow=none;html=1;rounded=0;entryX=0;entryY=0.5;entryDx=0;entryDy=0;exitX=1;exitY=0.5;exitDx=0;exitDy=0;" parent="1" source="e3u21Hywk7B6BTD9VeC_-1" target="e3u21Hywk7B6BTD9VeC_-7" edge="1">
          <mxGeometry width="50" height="50" relative="1" as="geometry">
            <mxPoint x="390" y="180" as="sourcePoint" />
            <mxPoint x="440" y="130" as="targetPoint" />
          </mxGeometry>
        </mxCell>
        <mxCell id="e3u21Hywk7B6BTD9VeC_-12" value="" style="endArrow=none;html=1;rounded=0;entryX=0;entryY=1;entryDx=0;entryDy=0;exitX=0.75;exitY=0;exitDx=0;exitDy=0;" parent="1" source="e3u21Hywk7B6BTD9VeC_-1" target="e3u21Hywk7B6BTD9VeC_-6" edge="1">
          <mxGeometry width="50" height="50" relative="1" as="geometry">
            <mxPoint x="390" y="180" as="sourcePoint" />
            <mxPoint x="440" y="130" as="targetPoint" />
          </mxGeometry>
        </mxCell>
        <mxCell id="e3u21Hywk7B6BTD9VeC_-13" value="" style="endArrow=none;html=1;rounded=0;exitX=0.5;exitY=1;exitDx=0;exitDy=0;entryX=0.5;entryY=0;entryDx=0;entryDy=0;" parent="1" source="e3u21Hywk7B6BTD9VeC_-8" target="e3u21Hywk7B6BTD9VeC_-1" edge="1">
          <mxGeometry width="50" height="50" relative="1" as="geometry">
            <mxPoint x="390" y="180" as="sourcePoint" />
            <mxPoint x="440" y="130" as="targetPoint" />
          </mxGeometry>
        </mxCell>
        <mxCell id="e3u21Hywk7B6BTD9VeC_-14" value="" style="endArrow=none;html=1;rounded=0;entryX=1;entryY=1;entryDx=0;entryDy=0;exitX=0.25;exitY=0;exitDx=0;exitDy=0;" parent="1" source="e3u21Hywk7B6BTD9VeC_-1" target="e3u21Hywk7B6BTD9VeC_-9" edge="1">
          <mxGeometry width="50" height="50" relative="1" as="geometry">
            <mxPoint x="390" y="180" as="sourcePoint" />
            <mxPoint x="440" y="130" as="targetPoint" />
          </mxGeometry>
        </mxCell>
        <mxCell id="e3u21Hywk7B6BTD9VeC_-15" value="" style="endArrow=none;html=1;rounded=0;exitX=1;exitY=0.5;exitDx=0;exitDy=0;entryX=0;entryY=0.5;entryDx=0;entryDy=0;" parent="1" source="e3u21Hywk7B6BTD9VeC_-10" target="e3u21Hywk7B6BTD9VeC_-1" edge="1">
          <mxGeometry width="50" height="50" relative="1" as="geometry">
            <mxPoint x="390" y="180" as="sourcePoint" />
            <mxPoint x="440" y="130" as="targetPoint" />
          </mxGeometry>
        </mxCell>
        <mxCell id="e3u21Hywk7B6BTD9VeC_-16" value="&lt;b&gt;&lt;u&gt;номер_счёта&lt;/u&gt;&lt;/b&gt;" style="ellipse;whiteSpace=wrap;html=1;" parent="1" vertex="1">
          <mxGeometry x="230" y="410" width="120" height="40" as="geometry" />
        </mxCell>
        <mxCell id="e3u21Hywk7B6BTD9VeC_-17" value="наименование_счёта" style="ellipse;whiteSpace=wrap;html=1;" parent="1" vertex="1">
          <mxGeometry x="360" y="340" width="130" height="40" as="geometry" />
        </mxCell>
        <mxCell id="e3u21Hywk7B6BTD9VeC_-20" value="баланс" style="ellipse;whiteSpace=wrap;html=1;" parent="1" vertex="1">
          <mxGeometry x="380" y="400" width="120" height="40" as="geometry" />
        </mxCell>
        <mxCell id="e3u21Hywk7B6BTD9VeC_-24" value="" style="endArrow=none;html=1;rounded=0;exitX=0.5;exitY=0;exitDx=0;exitDy=0;entryX=0.75;entryY=1;entryDx=0;entryDy=0;" parent="1" source="e3u21Hywk7B6BTD9VeC_-16" target="e3u21Hywk7B6BTD9VeC_-3" edge="1">
          <mxGeometry width="50" height="50" relative="1" as="geometry">
            <mxPoint x="280" y="140" as="sourcePoint" />
            <mxPoint x="330" y="90" as="targetPoint" />
          </mxGeometry>
        </mxCell>
        <mxCell id="e3u21Hywk7B6BTD9VeC_-30" value="" style="endArrow=none;html=1;rounded=0;entryX=0;entryY=0.5;entryDx=0;entryDy=0;exitX=1;exitY=0.5;exitDx=0;exitDy=0;" parent="1" source="e3u21Hywk7B6BTD9VeC_-3" target="e3u21Hywk7B6BTD9VeC_-17" edge="1">
          <mxGeometry width="50" height="50" relative="1" as="geometry">
            <mxPoint x="280" y="140" as="sourcePoint" />
            <mxPoint x="330" y="90" as="targetPoint" />
          </mxGeometry>
        </mxCell>
        <mxCell id="e3u21Hywk7B6BTD9VeC_-31" value="" style="endArrow=none;html=1;rounded=0;entryX=0;entryY=0.5;entryDx=0;entryDy=0;exitX=1;exitY=0.75;exitDx=0;exitDy=0;" parent="1" source="e3u21Hywk7B6BTD9VeC_-3" target="e3u21Hywk7B6BTD9VeC_-20" edge="1">
          <mxGeometry width="50" height="50" relative="1" as="geometry">
            <mxPoint x="280" y="140" as="sourcePoint" />
            <mxPoint x="330" y="90" as="targetPoint" />
          </mxGeometry>
        </mxCell>
        <mxCell id="e3u21Hywk7B6BTD9VeC_-36" value="1" style="text;html=1;strokeColor=none;fillColor=none;align=center;verticalAlign=middle;whiteSpace=wrap;rounded=0;" parent="1" vertex="1">
          <mxGeometry x="260" y="70" width="20" height="30" as="geometry" />
        </mxCell>
        <mxCell id="e3u21Hywk7B6BTD9VeC_-37" value="m" style="text;html=1;strokeColor=none;fillColor=none;align=center;verticalAlign=middle;whiteSpace=wrap;rounded=0;" parent="1" vertex="1">
          <mxGeometry x="260" y="310" width="20" height="30" as="geometry" />
        </mxCell>
        <mxCell id="e3u21Hywk7B6BTD9VeC_-48" value="журнал_транзакций" style="ellipse;whiteSpace=wrap;html=1;" parent="1" vertex="1">
          <mxGeometry x="300" y="210" width="120" height="40" as="geometry" />
        </mxCell>
        <mxCell id="e3u21Hywk7B6BTD9VeC_-49" value="" style="endArrow=none;html=1;rounded=0;exitX=0;exitY=0;exitDx=0;exitDy=0;entryX=1;entryY=1;entryDx=0;entryDy=0;" parent="1" source="e3u21Hywk7B6BTD9VeC_-48" target="e3u21Hywk7B6BTD9VeC_-2" edge="1">
          <mxGeometry width="50" height="50" relative="1" as="geometry">
            <mxPoint x="270" y="210" as="sourcePoint" />
            <mxPoint x="320" y="160" as="targetPoint" />
          </mxGeometry>
        </mxCell>
        <mxCell id="V82ZslPjWb0jyPVpj5px-95" style="rounded=0;orthogonalLoop=1;jettySize=auto;html=1;exitX=0;exitY=0.5;exitDx=0;exitDy=0;entryX=1;entryY=0;entryDx=0;entryDy=0;endArrow=none;endFill=0;" parent="1" source="e3u21Hywk7B6BTD9VeC_-50" target="V82ZslPjWb0jyPVpj5px-89" edge="1">
          <mxGeometry relative="1" as="geometry" />
        </mxCell>
        <mxCell id="e3u21Hywk7B6BTD9VeC_-50" value="финансовые обязанности" style="ellipse;whiteSpace=wrap;html=1;" parent="1" vertex="1">
          <mxGeometry x="50" y="350" width="120" height="40" as="geometry" />
        </mxCell>
        <mxCell id="e3u21Hywk7B6BTD9VeC_-54" value="транзакция" style="ellipse;whiteSpace=wrap;html=1;" parent="1" vertex="1">
          <mxGeometry x="60" y="160" width="120" height="40" as="geometry" />
        </mxCell>
        <mxCell id="e3u21Hywk7B6BTD9VeC_-55" value="" style="endArrow=none;html=1;rounded=0;entryX=0;entryY=0.5;entryDx=0;entryDy=0;exitX=1;exitY=0.5;exitDx=0;exitDy=0;" parent="1" source="e3u21Hywk7B6BTD9VeC_-54" target="e3u21Hywk7B6BTD9VeC_-2" edge="1">
          <mxGeometry width="50" height="50" relative="1" as="geometry">
            <mxPoint x="210" y="220" as="sourcePoint" />
            <mxPoint x="260" y="170" as="targetPoint" />
          </mxGeometry>
        </mxCell>
        <mxCell id="V82ZslPjWb0jyPVpj5px-98" style="rounded=0;orthogonalLoop=1;jettySize=auto;html=1;exitX=0;exitY=0.5;exitDx=0;exitDy=0;entryX=1;entryY=0;entryDx=0;entryDy=0;endArrow=none;endFill=0;" parent="1" source="V82ZslPjWb0jyPVpj5px-79" target="e3u21Hywk7B6BTD9VeC_-2" edge="1">
          <mxGeometry relative="1" as="geometry" />
        </mxCell>
        <mxCell id="V82ZslPjWb0jyPVpj5px-79" value="категории" style="ellipse;whiteSpace=wrap;html=1;" parent="1" vertex="1">
          <mxGeometry x="320" y="130" width="120" height="40" as="geometry" />
        </mxCell>
        <mxCell id="V82ZslPjWb0jyPVpj5px-89" value="задолженность" style="ellipse;whiteSpace=wrap;html=1;" parent="1" vertex="1">
          <mxGeometry x="-80" y="380" width="120" height="40" as="geometry" />
        </mxCell>
        <mxCell id="V82ZslPjWb0jyPVpj5px-90" value="одолжение" style="ellipse;whiteSpace=wrap;html=1;" parent="1" vertex="1">
          <mxGeometry x="50" y="410" width="120" height="40" as="geometry" />
        </mxCell>
        <mxCell id="V82ZslPjWb0jyPVpj5px-92" value="" style="endArrow=none;html=1;rounded=0;exitX=0.5;exitY=0;exitDx=0;exitDy=0;entryX=0.5;entryY=1;entryDx=0;entryDy=0;" parent="1" source="V82ZslPjWb0jyPVpj5px-90" target="e3u21Hywk7B6BTD9VeC_-50" edge="1">
          <mxGeometry width="50" height="50" relative="1" as="geometry">
            <mxPoint x="915" y="170" as="sourcePoint" />
            <mxPoint x="965" y="120" as="targetPoint" />
          </mxGeometry>
        </mxCell>
        <mxCell id="V82ZslPjWb0jyPVpj5px-97" style="rounded=0;orthogonalLoop=1;jettySize=auto;html=1;exitX=0.5;exitY=1;exitDx=0;exitDy=0;endArrow=none;endFill=0;" parent="1" source="V82ZslPjWb0jyPVpj5px-96" edge="1">
          <mxGeometry relative="1" as="geometry">
            <mxPoint x="260" y="30" as="targetPoint" />
          </mxGeometry>
        </mxCell>
        <mxCell id="V82ZslPjWb0jyPVpj5px-96" value="&lt;b&gt;&lt;u&gt;ID&lt;/u&gt;&lt;/b&gt;" style="ellipse;whiteSpace=wrap;html=1;" parent="1" vertex="1">
          <mxGeometry x="270" y="-70" width="120" height="40" as="geometry" />
        </mxCell>
        <mxCell id="XLCizKJvrAyFyJdV6BbJ-1" value="&lt;div&gt;&lt;b&gt;&lt;u&gt;Код_транзакции&lt;/u&gt;&lt;/b&gt;&lt;/div&gt;" style="ellipse;whiteSpace=wrap;html=1;" parent="1" vertex="1">
          <mxGeometry x="-90" y="220" width="120" height="40" as="geometry" />
        </mxCell>
        <mxCell id="hS-4HyBoHkUTcOerLhwg-2" value="тип_транзакции" style="ellipse;whiteSpace=wrap;html=1;" vertex="1" parent="1">
          <mxGeometry x="-90" y="100" width="120" height="40" as="geometry" />
        </mxCell>
        <mxCell id="hS-4HyBoHkUTcOerLhwg-4" value="" style="endArrow=none;html=1;rounded=0;exitX=1;exitY=0;exitDx=0;exitDy=0;entryX=0;entryY=1;entryDx=0;entryDy=0;" edge="1" parent="1" source="XLCizKJvrAyFyJdV6BbJ-1" target="e3u21Hywk7B6BTD9VeC_-54">
          <mxGeometry width="50" height="50" relative="1" as="geometry">
            <mxPoint x="230" y="250" as="sourcePoint" />
            <mxPoint x="280" y="200" as="targetPoint" />
          </mxGeometry>
        </mxCell>
        <mxCell id="hS-4HyBoHkUTcOerLhwg-5" value="" style="endArrow=none;html=1;rounded=0;exitX=1;exitY=0.5;exitDx=0;exitDy=0;entryX=0;entryY=0;entryDx=0;entryDy=0;" edge="1" parent="1" source="hS-4HyBoHkUTcOerLhwg-2" target="e3u21Hywk7B6BTD9VeC_-54">
          <mxGeometry width="50" height="50" relative="1" as="geometry">
            <mxPoint x="230" y="250" as="sourcePoint" />
            <mxPoint x="280" y="200" as="targetPoint" />
          </mxGeometry>
        </mxCell>
        <mxCell id="hS-4HyBoHkUTcOerLhwg-6" value="описание" style="ellipse;whiteSpace=wrap;html=1;" vertex="1" parent="1">
          <mxGeometry x="60" y="230" width="120" height="40" as="geometry" />
        </mxCell>
        <mxCell id="hS-4HyBoHkUTcOerLhwg-7" value="" style="endArrow=none;html=1;rounded=0;exitX=0.5;exitY=0;exitDx=0;exitDy=0;entryX=0.5;entryY=1;entryDx=0;entryDy=0;" edge="1" parent="1" source="hS-4HyBoHkUTcOerLhwg-6" target="e3u21Hywk7B6BTD9VeC_-54">
          <mxGeometry width="50" height="50" relative="1" as="geometry">
            <mxPoint x="69.57" y="231.86" as="sourcePoint" />
            <mxPoint x="115.57" y="219.86" as="targetPoint" />
          </mxGeometry>
        </mxCell>
        <mxCell id="hS-4HyBoHkUTcOerLhwg-8" value="дата" style="ellipse;whiteSpace=wrap;html=1;" vertex="1" parent="1">
          <mxGeometry x="60" y="100" width="120" height="40" as="geometry" />
        </mxCell>
        <mxCell id="hS-4HyBoHkUTcOerLhwg-9" value="" style="endArrow=none;html=1;rounded=0;exitX=0.5;exitY=1;exitDx=0;exitDy=0;entryX=0.5;entryY=0;entryDx=0;entryDy=0;" edge="1" parent="1" source="hS-4HyBoHkUTcOerLhwg-8" target="e3u21Hywk7B6BTD9VeC_-54">
          <mxGeometry width="50" height="50" relative="1" as="geometry">
            <mxPoint x="180" y="220" as="sourcePoint" />
            <mxPoint x="208" y="236" as="targetPoint" />
          </mxGeometry>
        </mxCell>
        <mxCell id="hS-4HyBoHkUTcOerLhwg-11" value="сумма" style="ellipse;whiteSpace=wrap;html=1;" vertex="1" parent="1">
          <mxGeometry x="-100" y="160" width="120" height="40" as="geometry" />
        </mxCell>
        <mxCell id="hS-4HyBoHkUTcOerLhwg-12" value="" style="endArrow=none;html=1;rounded=0;exitX=1;exitY=0.5;exitDx=0;exitDy=0;entryX=0;entryY=0.5;entryDx=0;entryDy=0;" edge="1" parent="1" source="hS-4HyBoHkUTcOerLhwg-11" target="e3u21Hywk7B6BTD9VeC_-54">
          <mxGeometry width="50" height="50" relative="1" as="geometry">
            <mxPoint x="-30" y="170" as="sourcePoint" />
            <mxPoint x="18" y="226" as="targetPoint" />
          </mxGeometry>
        </mxCell>
      </root>
    </mxGraphModel>
  </diagram>
</mxfile>
